<svg xmlns="http://www.w3.org/2000/svg" enable-background="new 0 0 24 24" viewBox="0 0 24 24"><path d="M23.961,11.954l-0.017-0.007l0.049,0.049C24.014,11.996,23.961,11.954,23.961,11.954z"/><polygon points="23.272 12.518 23.272 12.562 23.366 12.602"/><linearGradient id="a" x1="12.011" x2="12.011" y1=".75" y2="23.25" gradientUnits="userSpaceOnUse"><stop offset="0" stop-color="#39c4b6"/><stop offset="1" stop-color="#529ac3"/></linearGradient><polygon fill="url(#a)" points="12 .75 .75 12 12 23.25 23.272 12.518"/><path d="M12,24c-0.192,0-0.384-0.073-0.53-0.22L0.22,12.53c-0.293-0.293-0.293-0.768,0-1.061L11.47,0.22c0.293-0.293,0.768-0.293,1.061,0l11.25,11.25c0.293,0.293,0.293,0.768,0,1.061L12.53,23.78C12.384,23.927,12.192,24,12,24z M1.811,12L12,22.189L22.189,12L12,1.811L1.811,12z"/><path d="M5.151,17.152c-0.143,0-0.287-0.041-0.414-0.126c-0.346-0.229-0.438-0.694-0.209-1.039l8.99-13.51c0.229-0.346,0.695-0.439,1.039-0.209c0.346,0.229,0.438,0.694,0.209,1.039l-8.99,13.51C5.632,17.035,5.395,17.152,5.151,17.152z"/><path d="M23.25,12.75c-0.097,0-0.194-0.019-0.289-0.058L7.087,6.066c-0.382-0.16-0.562-0.599-0.403-0.981s0.599-0.562,0.981-0.403l15.874,6.626c0.382,0.16,0.562,0.599,0.403,0.981C23.822,12.577,23.543,12.75,23.25,12.75z"/><path d="M14.568,21.433c-0.037,0-0.074-0.003-0.112-0.008c-0.409-0.062-0.691-0.443-0.631-0.854l2.261-15.105c0.062-0.41,0.44-0.684,0.854-0.631c0.409,0.062,0.691,0.443,0.631,0.854L15.31,20.794C15.254,21.166,14.934,21.433,14.568,21.433z"/><path d="M19.251,16.75c-0.053,0-0.106-0.006-0.159-0.017l-18.5-4c-0.405-0.088-0.662-0.487-0.575-0.892c0.088-0.405,0.492-0.656,0.892-0.575l18.5,4c0.405,0.088,0.662,0.487,0.575,0.892C19.907,16.51,19.597,16.75,19.251,16.75z"/><path d="M3.711,15.754c-0.282,0-0.553-0.159-0.68-0.432c-0.176-0.375-0.015-0.821,0.36-0.997L18.74,7.13c0.374-0.179,0.821-0.015,0.997,0.36s0.015,0.821-0.36,0.997L4.028,15.683C3.926,15.731,3.817,15.754,3.711,15.754z"/><path d="M12.872,23.129c-0.249,0-0.491-0.123-0.635-0.349L3.505,9.013C3.283,8.663,3.387,8.2,3.737,7.978C4.087,7.758,4.55,7.86,4.772,8.21l8.732,13.768c0.222,0.35,0.118,0.812-0.232,1.035C13.148,23.091,13.009,23.129,12.872,23.129z"/></svg>